<svg width="374" height="184" viewBox="0 0 374 184" fill="none" xmlns="http://www.w3.org/2000/svg">
<rect x="1" y="1" width="372" height="182" rx="3" fill="white" stroke="#1E1E1E" stroke-width="2"/>
<path opacity="0.8" d="M24.8164 30.2285C23.3984 30.2285 22.168 29.8242 21.125 29.0156C20.9375 28.875 20.832 28.6816 20.8086 28.4355C20.7969 28.4121 20.791 28.3828 20.791 28.3477C20.791 28.1484 20.8555 27.9668 20.9844 27.8027C21.1133 27.627 21.2891 27.5273 21.5117 27.5039C21.5352 27.5039 21.5645 27.5039 21.5996 27.5039C21.7871 27.5039 21.957 27.5625 22.1094 27.6797C22.8594 28.2539 23.6797 28.541 24.5703 28.541C25.332 28.541 25.959 28.2891 26.4512 27.7852C26.9551 27.2695 27.207 26.5781 27.207 25.7109C27.207 24.8438 26.9785 24.1699 26.5215 23.6895C26.0645 23.1973 25.4492 22.9512 24.6758 22.9512C24.125 22.9512 23.5918 23.0977 23.0762 23.3906C22.9004 23.4844 22.7305 23.5312 22.5664 23.5312C22.3906 23.5312 22.2207 23.4785 22.0566 23.373C21.7168 23.1504 21.5586 22.834 21.582 22.4238L21.8809 17.7832C21.8926 17.4902 22.0039 17.2441 22.2148 17.0449C22.4375 16.8457 22.6953 16.7461 22.9883 16.7461H27.7871C28.0215 16.7461 28.2266 16.834 28.4023 17.0098C28.5781 17.1738 28.666 17.3789 28.666 17.625C28.666 17.8711 28.5781 18.082 28.4023 18.2578C28.2266 18.4219 28.0215 18.5039 27.7871 18.5039H23.8672C23.7852 18.5039 23.7383 18.5449 23.7266 18.627L23.4453 21.7734C23.4453 21.7969 23.457 21.8203 23.4805 21.8438C23.5039 21.8555 23.5273 21.8555 23.5508 21.8438C24.1133 21.5742 24.6816 21.4395 25.2559 21.4395C26.4395 21.4395 27.4062 21.7969 28.1562 22.5117C28.9062 23.2148 29.2812 24.2578 29.2812 25.6406C29.2812 26.5898 29.0703 27.4219 28.6484 28.1367C28.2266 28.8398 27.6816 29.3672 27.0137 29.7188C26.3457 30.0586 25.6133 30.2285 24.8164 30.2285ZM35.3809 30.2285C34.0449 30.2285 32.9961 29.6426 32.2344 28.4707C31.4727 27.2988 31.0918 25.582 31.0918 23.3203C31.0918 21.082 31.4727 19.3887 32.2344 18.2402C32.9961 17.0801 34.0449 16.5 35.3809 16.5C36.7051 16.5 37.748 17.0801 38.5098 18.2402C39.2832 19.4004 39.6699 21.0938 39.6699 23.3203C39.6699 25.5703 39.2832 27.2871 38.5098 28.4707C37.748 29.6426 36.7051 30.2285 35.3809 30.2285ZM33.6934 27.3281C34.1035 28.1719 34.666 28.5938 35.3809 28.5938C36.0957 28.5938 36.6582 28.1719 37.0684 27.3281C37.4785 26.4844 37.6836 25.1484 37.6836 23.3203C37.6836 19.8633 36.916 18.1348 35.3809 18.1348C33.8457 18.1348 33.0781 19.8633 33.0781 23.3203C33.0781 25.1484 33.2832 26.4844 33.6934 27.3281ZM46.4902 23.7773C45.9277 24.5156 45.1777 24.8848 44.2402 24.8848C43.3027 24.8848 42.5527 24.5156 41.9902 23.7773C41.4277 23.0273 41.1465 21.9961 41.1465 20.6836C41.1465 19.3711 41.4277 18.3457 41.9902 17.6074C42.5527 16.8691 43.3027 16.5 44.2402 16.5C45.1777 16.5 45.9277 16.8691 46.4902 17.6074C47.0645 18.3457 47.3516 19.3711 47.3516 20.6836C47.3516 21.9961 47.0645 23.0273 46.4902 23.7773ZM44.2402 23.6719C44.7324 23.6719 45.1191 23.4199 45.4004 22.916C45.6934 22.4004 45.8398 21.6562 45.8398 20.6836C45.8398 19.6875 45.6934 18.9492 45.4004 18.4688C45.1191 17.9766 44.7324 17.7305 44.2402 17.7305C43.7598 17.7305 43.373 17.9766 43.0801 18.4688C42.7988 18.9492 42.6582 19.6875 42.6582 20.6836C42.6582 21.6562 42.7988 22.4004 43.0801 22.916C43.373 23.4199 43.7598 23.6719 44.2402 23.6719ZM45.2949 30.2285C45.1543 30.2285 45.043 30.1699 44.9609 30.0527C44.9258 29.9824 44.9082 29.9121 44.9082 29.8418C44.9082 29.7832 44.9258 29.7246 44.9609 29.666L51.6055 17.0801C51.8047 16.6934 52.127 16.5 52.5723 16.5C52.7129 16.5 52.8184 16.5645 52.8887 16.6934C52.9707 16.8223 52.9766 16.9512 52.9062 17.0801L46.2617 29.666C46.0508 30.041 45.7285 30.2285 45.2949 30.2285ZM53.6621 30.2285C52.7129 30.2285 51.9512 29.8594 51.377 29.1211C50.8145 28.3828 50.5332 27.3574 50.5332 26.0449C50.5332 24.7324 50.8145 23.707 51.377 22.9688C51.9512 22.2305 52.7129 21.8613 53.6621 21.8613C54.5879 21.8613 55.332 22.2305 55.8945 22.9688C56.4688 23.707 56.7559 24.7324 56.7559 26.0449C56.7559 27.3574 56.4688 28.3828 55.8945 29.1211C55.332 29.8594 54.5879 30.2285 53.6621 30.2285ZM53.6621 29.0332C54.1309 29.0332 54.5117 28.7812 54.8047 28.2773C55.0977 27.7617 55.2441 27.0176 55.2441 26.0449C55.2441 25.0605 55.0977 24.3223 54.8047 23.8301C54.5234 23.3379 54.1426 23.0918 53.6621 23.0918C53.1699 23.0918 52.7773 23.3379 52.4844 23.8301C52.1914 24.3105 52.0449 25.0488 52.0449 26.0449C52.0449 27.0293 52.1914 27.7734 52.4844 28.2773C52.7773 28.7812 53.1699 29.0332 53.6621 29.0332Z" fill="#1E1E1E"/>
<path opacity="0.8" d="M21.3887 76C21.2246 76 21.084 75.9414 20.9668 75.8242C20.8496 75.707 20.791 75.5664 20.791 75.4023C20.791 75.0039 20.9434 74.6699 21.248 74.4004C23.0996 72.7246 24.4707 71.2598 25.3613 70.0059C26.2637 68.752 26.7148 67.6094 26.7148 66.5781C26.7148 65.8398 26.5156 65.2539 26.1172 64.8203C25.7305 64.375 25.1797 64.1523 24.4648 64.1523C23.7734 64.1523 23.0938 64.4512 22.4258 65.0488C22.2617 65.2012 22.0684 65.2773 21.8457 65.2773C21.834 65.2773 21.8281 65.2773 21.8281 65.2773C21.6172 65.2773 21.4297 65.2012 21.2656 65.0488C21.1016 64.8848 21.0195 64.6914 21.0195 64.4688C21.0195 64.2461 21.1016 64.0586 21.2656 63.9062C22.2852 62.9688 23.4336 62.5 24.7109 62.5C25.9297 62.5 26.9023 62.8633 27.6289 63.5898C28.3555 64.3164 28.7188 65.2773 28.7188 66.4727C28.7188 67.668 28.3027 68.9043 27.4707 70.1816C26.6387 71.459 25.4727 72.8242 23.9727 74.2773C23.9492 74.2891 23.9434 74.3066 23.9551 74.3301C23.9668 74.3418 23.9844 74.3477 24.0078 74.3477C24.7578 74.2773 25.4316 74.2422 26.0293 74.2422H28.4551C28.7012 74.2422 28.9062 74.3301 29.0703 74.5059C29.2461 74.6699 29.334 74.875 29.334 75.1211C29.334 75.3672 29.2461 75.5781 29.0703 75.7539C28.9062 75.918 28.7012 76 28.4551 76H21.3887ZM31.6367 76C31.4727 76 31.332 75.9414 31.2148 75.8242C31.0977 75.707 31.0391 75.5664 31.0391 75.4023C31.0391 75.0039 31.1914 74.6699 31.4961 74.4004C33.3477 72.7246 34.7188 71.2598 35.6094 70.0059C36.5117 68.752 36.9629 67.6094 36.9629 66.5781C36.9629 65.8398 36.7637 65.2539 36.3652 64.8203C35.9785 64.375 35.4277 64.1523 34.7129 64.1523C34.0215 64.1523 33.3418 64.4512 32.6738 65.0488C32.5098 65.2012 32.3164 65.2773 32.0938 65.2773C32.082 65.2773 32.0762 65.2773 32.0762 65.2773C31.8652 65.2773 31.6777 65.2012 31.5137 65.0488C31.3496 64.8848 31.2676 64.6914 31.2676 64.4688C31.2676 64.2461 31.3496 64.0586 31.5137 63.9062C32.5332 62.9688 33.6816 62.5 34.959 62.5C36.1777 62.5 37.1504 62.8633 37.877 63.5898C38.6035 64.3164 38.9668 65.2773 38.9668 66.4727C38.9668 67.668 38.5508 68.9043 37.7188 70.1816C36.8867 71.459 35.7207 72.8242 34.2207 74.2773C34.1973 74.2891 34.1914 74.3066 34.2031 74.3301C34.2148 74.3418 34.2324 74.3477 34.2559 74.3477C35.0059 74.2773 35.6797 74.2422 36.2773 74.2422H38.7031C38.9492 74.2422 39.1543 74.3301 39.3184 74.5059C39.4941 74.6699 39.582 74.875 39.582 75.1211C39.582 75.3672 39.4941 75.5781 39.3184 75.7539C39.1543 75.918 38.9492 76 38.7031 76H31.6367ZM44.1523 75.8242C43.8945 76.0938 43.5664 76.2285 43.168 76.2285C42.7812 76.2285 42.4531 76.0938 42.1836 75.8242C41.9258 75.5547 41.7969 75.2148 41.7969 74.8047C41.7969 74.3828 41.9258 74.0312 42.1836 73.75C42.4531 73.457 42.7812 73.3105 43.168 73.3105C43.5664 73.3105 43.8945 73.457 44.1523 73.75C44.4219 74.0312 44.5566 74.3828 44.5566 74.8047C44.5566 75.2148 44.4219 75.5547 44.1523 75.8242ZM48.2656 76C48.0312 76 47.8262 75.918 47.6504 75.7539C47.4863 75.5898 47.4043 75.3906 47.4043 75.1562C47.4043 74.9102 47.4863 74.7051 47.6504 74.541C47.8262 74.377 48.0312 74.2949 48.2656 74.2949H50.1641C50.2578 74.2949 50.3047 74.248 50.3047 74.1543V65.207C50.3047 65.1133 50.2578 65.0664 50.1641 65.0664H48.582C48.4062 65.0664 48.2539 65.0078 48.125 64.8906C47.9961 64.7617 47.9316 64.6035 47.9316 64.416C47.9316 64.2285 47.9902 64.0645 48.1074 63.9238C48.2246 63.7715 48.377 63.6719 48.5645 63.625C49.1621 63.4844 49.6777 63.3145 50.1113 63.1152C50.6621 62.8691 51.1543 62.7461 51.5879 62.7461C51.8105 62.7461 51.998 62.8223 52.1504 62.9746C52.3027 63.127 52.3789 63.3145 52.3789 63.5371V74.1543C52.3789 74.248 52.4199 74.2949 52.502 74.2949H54.1191C54.3535 74.2949 54.5527 74.377 54.7168 74.541C54.8809 74.7051 54.9629 74.9102 54.9629 75.1562C54.9629 75.3906 54.8809 75.5898 54.7168 75.7539C54.5527 75.918 54.3535 76 54.1191 76H48.2656ZM62.0996 69.7773C61.5371 70.5156 60.7871 70.8848 59.8496 70.8848C58.9121 70.8848 58.1621 70.5156 57.5996 69.7773C57.0371 69.0273 56.7559 67.9961 56.7559 66.6836C56.7559 65.3711 57.0371 64.3457 57.5996 63.6074C58.1621 62.8691 58.9121 62.5 59.8496 62.5C60.7871 62.5 61.5371 62.8691 62.0996 63.6074C62.6738 64.3457 62.9609 65.3711 62.9609 66.6836C62.9609 67.9961 62.6738 69.0273 62.0996 69.7773ZM59.8496 69.6719C60.3418 69.6719 60.7285 69.4199 61.0098 68.916C61.3027 68.4004 61.4492 67.6562 61.4492 66.6836C61.4492 65.6875 61.3027 64.9492 61.0098 64.4688C60.7285 63.9766 60.3418 63.7305 59.8496 63.7305C59.3691 63.7305 58.9824 63.9766 58.6895 64.4688C58.4082 64.9492 58.2676 65.6875 58.2676 66.6836C58.2676 67.6562 58.4082 68.4004 58.6895 68.916C58.9824 69.4199 59.3691 69.6719 59.8496 69.6719ZM60.9043 76.2285C60.7637 76.2285 60.6523 76.1699 60.5703 76.0527C60.5352 75.9824 60.5176 75.9121 60.5176 75.8418C60.5176 75.7832 60.5352 75.7246 60.5703 75.666L67.2148 63.0801C67.4141 62.6934 67.7363 62.5 68.1816 62.5C68.3223 62.5 68.4277 62.5645 68.498 62.6934C68.5801 62.8223 68.5859 62.9512 68.5156 63.0801L61.8711 75.666C61.6602 76.041 61.3379 76.2285 60.9043 76.2285ZM69.2715 76.2285C68.3223 76.2285 67.5605 75.8594 66.9863 75.1211C66.4238 74.3828 66.1426 73.3574 66.1426 72.0449C66.1426 70.7324 66.4238 69.707 66.9863 68.9688C67.5605 68.2305 68.3223 67.8613 69.2715 67.8613C70.1973 67.8613 70.9414 68.2305 71.5039 68.9688C72.0781 69.707 72.3652 70.7324 72.3652 72.0449C72.3652 73.3574 72.0781 74.3828 71.5039 75.1211C70.9414 75.8594 70.1973 76.2285 69.2715 76.2285ZM69.2715 75.0332C69.7402 75.0332 70.1211 74.7812 70.4141 74.2773C70.707 73.7617 70.8535 73.0176 70.8535 72.0449C70.8535 71.0605 70.707 70.3223 70.4141 69.8301C70.1328 69.3379 69.752 69.0918 69.2715 69.0918C68.7793 69.0918 68.3867 69.3379 68.0938 69.8301C67.8008 70.3105 67.6543 71.0488 67.6543 72.0449C67.6543 73.0293 67.8008 73.7734 68.0938 74.2773C68.3867 74.7812 68.7793 75.0332 69.2715 75.0332Z" fill="#1E1E1E"/>
<path opacity="0.8" d="M21.3887 122C21.2246 122 21.084 121.941 20.9668 121.824C20.8496 121.707 20.791 121.566 20.791 121.402C20.791 121.004 20.9434 120.67 21.248 120.4C23.0996 118.725 24.4707 117.26 25.3613 116.006C26.2637 114.752 26.7148 113.609 26.7148 112.578C26.7148 111.84 26.5156 111.254 26.1172 110.82C25.7305 110.375 25.1797 110.152 24.4648 110.152C23.7734 110.152 23.0938 110.451 22.4258 111.049C22.2617 111.201 22.0684 111.277 21.8457 111.277C21.834 111.277 21.8281 111.277 21.8281 111.277C21.6172 111.277 21.4297 111.201 21.2656 111.049C21.1016 110.885 21.0195 110.691 21.0195 110.469C21.0195 110.246 21.1016 110.059 21.2656 109.906C22.2852 108.969 23.4336 108.5 24.7109 108.5C25.9297 108.5 26.9023 108.863 27.6289 109.59C28.3555 110.316 28.7188 111.277 28.7188 112.473C28.7188 113.668 28.3027 114.904 27.4707 116.182C26.6387 117.459 25.4727 118.824 23.9727 120.277C23.9492 120.289 23.9434 120.307 23.9551 120.33C23.9668 120.342 23.9844 120.348 24.0078 120.348C24.7578 120.277 25.4316 120.242 26.0293 120.242H28.4551C28.7012 120.242 28.9062 120.33 29.0703 120.506C29.2461 120.67 29.334 120.875 29.334 121.121C29.334 121.367 29.2461 121.578 29.0703 121.754C28.9062 121.918 28.7012 122 28.4551 122H21.3887ZM31.6367 122C31.4727 122 31.332 121.941 31.2148 121.824C31.0977 121.707 31.0391 121.566 31.0391 121.402C31.0391 121.004 31.1914 120.67 31.4961 120.4C33.3477 118.725 34.7188 117.26 35.6094 116.006C36.5117 114.752 36.9629 113.609 36.9629 112.578C36.9629 111.84 36.7637 111.254 36.3652 110.82C35.9785 110.375 35.4277 110.152 34.7129 110.152C34.0215 110.152 33.3418 110.451 32.6738 111.049C32.5098 111.201 32.3164 111.277 32.0938 111.277C32.082 111.277 32.0762 111.277 32.0762 111.277C31.8652 111.277 31.6777 111.201 31.5137 111.049C31.3496 110.885 31.2676 110.691 31.2676 110.469C31.2676 110.246 31.3496 110.059 31.5137 109.906C32.5332 108.969 33.6816 108.5 34.959 108.5C36.1777 108.5 37.1504 108.863 37.877 109.59C38.6035 110.316 38.9668 111.277 38.9668 112.473C38.9668 113.668 38.5508 114.904 37.7188 116.182C36.8867 117.459 35.7207 118.824 34.2207 120.277C34.1973 120.289 34.1914 120.307 34.2031 120.33C34.2148 120.342 34.2324 120.348 34.2559 120.348C35.0059 120.277 35.6797 120.242 36.2773 120.242H38.7031C38.9492 120.242 39.1543 120.33 39.3184 120.506C39.4941 120.67 39.582 120.875 39.582 121.121C39.582 121.367 39.4941 121.578 39.3184 121.754C39.1543 121.918 38.9492 122 38.7031 122H31.6367ZM46.4902 115.777C45.9277 116.516 45.1777 116.885 44.2402 116.885C43.3027 116.885 42.5527 116.516 41.9902 115.777C41.4277 115.027 41.1465 113.996 41.1465 112.684C41.1465 111.371 41.4277 110.346 41.9902 109.607C42.5527 108.869 43.3027 108.5 44.2402 108.5C45.1777 108.5 45.9277 108.869 46.4902 109.607C47.0645 110.346 47.3516 111.371 47.3516 112.684C47.3516 113.996 47.0645 115.027 46.4902 115.777ZM44.2402 115.672C44.7324 115.672 45.1191 115.42 45.4004 114.916C45.6934 114.4 45.8398 113.656 45.8398 112.684C45.8398 111.688 45.6934 110.949 45.4004 110.469C45.1191 109.977 44.7324 109.73 44.2402 109.73C43.7598 109.73 43.373 109.977 43.0801 110.469C42.7988 110.949 42.6582 111.688 42.6582 112.684C42.6582 113.656 42.7988 114.4 43.0801 114.916C43.373 115.42 43.7598 115.672 44.2402 115.672ZM45.2949 122.229C45.1543 122.229 45.043 122.17 44.9609 122.053C44.9258 121.982 44.9082 121.912 44.9082 121.842C44.9082 121.783 44.9258 121.725 44.9609 121.666L51.6055 109.08C51.8047 108.693 52.127 108.5 52.5723 108.5C52.7129 108.5 52.8184 108.564 52.8887 108.693C52.9707 108.822 52.9766 108.951 52.9062 109.08L46.2617 121.666C46.0508 122.041 45.7285 122.229 45.2949 122.229ZM53.6621 122.229C52.7129 122.229 51.9512 121.859 51.377 121.121C50.8145 120.383 50.5332 119.357 50.5332 118.045C50.5332 116.732 50.8145 115.707 51.377 114.969C51.9512 114.23 52.7129 113.861 53.6621 113.861C54.5879 113.861 55.332 114.23 55.8945 114.969C56.4688 115.707 56.7559 116.732 56.7559 118.045C56.7559 119.357 56.4688 120.383 55.8945 121.121C55.332 121.859 54.5879 122.229 53.6621 122.229ZM53.6621 121.033C54.1309 121.033 54.5117 120.781 54.8047 120.277C55.0977 119.762 55.2441 119.018 55.2441 118.045C55.2441 117.061 55.0977 116.322 54.8047 115.83C54.5234 115.338 54.1426 115.092 53.6621 115.092C53.1699 115.092 52.7773 115.338 52.4844 115.83C52.1914 116.311 52.0449 117.049 52.0449 118.045C52.0449 119.029 52.1914 119.773 52.4844 120.277C52.7773 120.781 53.1699 121.033 53.6621 121.033Z" fill="#1E1E1E"/>
<path opacity="0.8" d="M140.777 30C140.496 30 140.25 29.9004 140.039 29.7012C139.84 29.4902 139.74 29.2441 139.74 28.9629V17.7832C139.74 17.502 139.84 17.2617 140.039 17.0625C140.25 16.8516 140.496 16.7461 140.777 16.7461H140.795C141.088 16.7461 141.334 16.8516 141.533 17.0625C141.732 17.2617 141.832 17.502 141.832 17.7832V28.1016C141.832 28.1953 141.879 28.2422 141.973 28.2422H146.543C146.789 28.2422 147 28.3301 147.176 28.5059C147.352 28.6699 147.439 28.875 147.439 29.1211C147.439 29.3672 147.352 29.5781 147.176 29.7539C147 29.918 146.789 30 146.543 30H140.777ZM151.342 29.7012C151.143 29.9004 150.896 30 150.604 30C150.322 30 150.082 29.9004 149.883 29.7012C149.684 29.502 149.584 29.2617 149.584 28.9805V21.123C149.584 20.8418 149.684 20.6016 149.883 20.4023C150.082 20.2031 150.322 20.1035 150.604 20.1035C150.896 20.1035 151.143 20.2031 151.342 20.4023C151.541 20.6016 151.641 20.8418 151.641 21.123V28.9805C151.641 29.2617 151.541 29.502 151.342 29.7012ZM151.553 17.9062C151.307 18.1289 150.99 18.2402 150.604 18.2402C150.229 18.2402 149.918 18.1289 149.672 17.9062C149.426 17.6719 149.303 17.3789 149.303 17.0273C149.303 16.6641 149.426 16.3711 149.672 16.1484C149.918 15.9141 150.229 15.7969 150.604 15.7969C150.99 15.7969 151.307 15.9141 151.553 16.1484C151.811 16.3711 151.939 16.6641 151.939 17.0273C151.939 17.3789 151.811 17.6719 151.553 17.9062ZM162.662 33.7441C162.463 33.9551 162.217 34.0605 161.924 34.0605C161.643 34.0605 161.396 33.9551 161.186 33.7441C160.986 33.5449 160.887 33.3047 160.887 33.0234V30.6855L160.975 29.1211C160.975 29.0977 160.963 29.0801 160.939 29.0684C160.928 29.0566 160.91 29.0566 160.887 29.0684C160.02 29.877 159.111 30.2812 158.162 30.2812C156.908 30.2812 155.912 29.8242 155.174 28.9102C154.436 27.9961 154.066 26.7305 154.066 25.1133C154.066 23.5547 154.482 22.2949 155.314 21.334C156.158 20.373 157.16 19.8926 158.32 19.8926C159.305 19.8926 160.213 20.2852 161.045 21.0703C161.068 21.0938 161.092 21.1055 161.115 21.1055C161.139 21.1055 161.15 21.0938 161.15 21.0703L161.168 20.9473C161.215 20.7129 161.326 20.5195 161.502 20.3672C161.689 20.2148 161.9 20.1387 162.135 20.1387C162.369 20.1387 162.562 20.2207 162.715 20.3848C162.879 20.5488 162.961 20.7422 162.961 20.9648V33.0234C162.961 33.3047 162.861 33.5449 162.662 33.7441ZM158.637 28.5762C159.41 28.5762 160.131 28.207 160.799 27.4688C160.857 27.3984 160.887 27.3164 160.887 27.2227V22.6523C160.887 22.5586 160.857 22.4824 160.799 22.4238C160.166 21.8848 159.469 21.6152 158.707 21.6152C158.004 21.6152 157.412 21.9316 156.932 22.5645C156.451 23.1973 156.211 24.0352 156.211 25.0781C156.211 26.2031 156.422 27.0703 156.844 27.6797C157.266 28.2773 157.863 28.5762 158.637 28.5762ZM168.973 30.2285C166.957 30.2285 165.949 28.9277 165.949 26.3262V21.1406C165.949 20.8477 166.049 20.6016 166.248 20.4023C166.447 20.2031 166.688 20.1035 166.969 20.1035C167.262 20.1035 167.508 20.2031 167.707 20.4023C167.918 20.6016 168.023 20.8477 168.023 21.1406V26.0801C168.023 26.9238 168.152 27.5332 168.41 27.9082C168.668 28.2715 169.09 28.4531 169.676 28.4531C170.109 28.4531 170.496 28.3477 170.836 28.1367C171.188 27.9258 171.562 27.5742 171.961 27.082C172.02 27.0117 172.049 26.9297 172.049 26.8359V21.1406C172.049 20.8477 172.148 20.6016 172.348 20.4023C172.559 20.2031 172.805 20.1035 173.086 20.1035C173.367 20.1035 173.607 20.2031 173.807 20.4023C174.018 20.6016 174.123 20.8477 174.123 21.1406V29.1562C174.123 29.3906 174.041 29.5898 173.877 29.7539C173.713 29.918 173.514 30 173.279 30C173.033 30 172.822 29.9238 172.646 29.7715C172.471 29.6074 172.365 29.4023 172.33 29.1562L172.277 28.541C172.266 28.5176 172.248 28.5059 172.225 28.5059C172.213 28.5059 172.201 28.5117 172.189 28.5234C171.709 29.0859 171.211 29.5137 170.695 29.8066C170.191 30.0879 169.617 30.2285 168.973 30.2285ZM178.975 29.7012C178.775 29.9004 178.529 30 178.236 30C177.955 30 177.715 29.9004 177.516 29.7012C177.316 29.502 177.217 29.2617 177.217 28.9805V21.123C177.217 20.8418 177.316 20.6016 177.516 20.4023C177.715 20.2031 177.955 20.1035 178.236 20.1035C178.529 20.1035 178.775 20.2031 178.975 20.4023C179.174 20.6016 179.273 20.8418 179.273 21.123V28.9805C179.273 29.2617 179.174 29.502 178.975 29.7012ZM179.186 17.9062C178.939 18.1289 178.623 18.2402 178.236 18.2402C177.861 18.2402 177.551 18.1289 177.305 17.9062C177.059 17.6719 176.936 17.3789 176.936 17.0273C176.936 16.6641 177.059 16.3711 177.305 16.1484C177.551 15.9141 177.861 15.7969 178.236 15.7969C178.623 15.7969 178.939 15.9141 179.186 16.1484C179.443 16.3711 179.572 16.6641 179.572 17.0273C179.572 17.3789 179.443 17.6719 179.186 17.9062ZM185.795 30.2285C184.541 30.2285 183.545 29.7773 182.807 28.875C182.068 27.9609 181.699 26.6895 181.699 25.0605C181.699 23.5137 182.115 22.2598 182.947 21.2988C183.791 20.3262 184.793 19.8398 185.953 19.8398C186.457 19.8398 186.902 19.9277 187.289 20.1035C187.688 20.2676 188.098 20.5254 188.52 20.877C188.531 20.8887 188.549 20.8945 188.572 20.8945C188.596 20.8828 188.607 20.8594 188.607 20.8242L188.52 19.3301V16.6934C188.52 16.4004 188.619 16.1543 188.818 15.9551C189.029 15.7559 189.275 15.6562 189.557 15.6562C189.85 15.6562 190.096 15.7559 190.295 15.9551C190.494 16.1543 190.594 16.4004 190.594 16.6934V29.1562C190.594 29.3906 190.512 29.5898 190.348 29.7539C190.184 29.918 189.984 30 189.75 30C189.504 30 189.287 29.9238 189.1 29.7715C188.912 29.6074 188.801 29.4023 188.766 29.1562L188.73 28.9102C188.73 28.8984 188.719 28.8926 188.695 28.8926C188.672 28.8926 188.654 28.8984 188.643 28.9102C187.775 29.7891 186.826 30.2285 185.795 30.2285ZM186.27 28.5234C187.043 28.5234 187.764 28.1543 188.432 27.416C188.49 27.3574 188.52 27.2812 188.52 27.1875V22.5996C188.52 22.5176 188.49 22.4473 188.432 22.3887C187.787 21.8496 187.09 21.5801 186.34 21.5801C185.637 21.5801 185.045 21.8965 184.564 22.5293C184.084 23.1504 183.844 23.9824 183.844 25.0254C183.844 26.1504 184.055 27.0176 184.477 27.627C184.898 28.2246 185.496 28.5234 186.27 28.5234ZM195.463 29.7012C195.264 29.9004 195.018 30 194.725 30C194.443 30 194.203 29.9004 194.004 29.7012C193.805 29.502 193.705 29.2617 193.705 28.9805V21.123C193.705 20.8418 193.805 20.6016 194.004 20.4023C194.203 20.2031 194.443 20.1035 194.725 20.1035C195.018 20.1035 195.264 20.2031 195.463 20.4023C195.662 20.6016 195.762 20.8418 195.762 21.123V28.9805C195.762 29.2617 195.662 29.502 195.463 29.7012ZM195.674 17.9062C195.428 18.1289 195.111 18.2402 194.725 18.2402C194.35 18.2402 194.039 18.1289 193.793 17.9062C193.547 17.6719 193.424 17.3789 193.424 17.0273C193.424 16.6641 193.547 16.3711 193.793 16.1484C194.039 15.9141 194.35 15.7969 194.725 15.7969C195.111 15.7969 195.428 15.9141 195.674 16.1484C195.932 16.3711 196.061 16.6641 196.061 17.0273C196.061 17.3789 195.932 17.6719 195.674 17.9062ZM202.195 30.2285C201.129 30.2285 200.361 29.9297 199.893 29.332C199.424 28.7227 199.189 27.8672 199.189 26.7656V21.8965C199.189 21.8027 199.143 21.7559 199.049 21.7559H198.521C198.299 21.7559 198.111 21.6797 197.959 21.5273C197.818 21.375 197.748 21.1934 197.748 20.9824C197.748 20.7598 197.818 20.5723 197.959 20.4199C198.111 20.2559 198.299 20.168 198.521 20.1562L199.137 20.1035C199.23 20.1035 199.277 20.0566 199.277 19.9629L199.436 18.2402C199.459 17.9941 199.559 17.7891 199.734 17.625C199.922 17.4492 200.139 17.3613 200.385 17.3613C200.619 17.3613 200.818 17.4492 200.982 17.625C201.158 17.7891 201.246 17.9941 201.246 18.2402V19.9629C201.246 20.0566 201.293 20.1035 201.387 20.1035H203.004C203.227 20.1035 203.42 20.1855 203.584 20.3496C203.748 20.502 203.83 20.6953 203.83 20.9297C203.83 21.1523 203.748 21.3457 203.584 21.5098C203.42 21.6738 203.227 21.7559 203.004 21.7559H201.387C201.293 21.7559 201.246 21.8027 201.246 21.8965V26.7832C201.246 27.3809 201.357 27.832 201.58 28.1367C201.814 28.4297 202.184 28.5762 202.688 28.5762C202.781 28.5762 202.887 28.5703 203.004 28.5586C203.051 28.5469 203.098 28.541 203.145 28.541C203.309 28.541 203.461 28.582 203.602 28.6641C203.777 28.7578 203.889 28.9043 203.936 29.1035C203.959 29.1738 203.971 29.2441 203.971 29.3145C203.971 29.4551 203.936 29.5898 203.865 29.7188C203.748 29.918 203.584 30.041 203.373 30.0879C202.951 30.1816 202.559 30.2285 202.195 30.2285ZM212.953 20.1387C213.199 20.1387 213.398 20.2441 213.551 20.4551C213.633 20.584 213.674 20.7188 213.674 20.8594C213.674 20.9297 213.662 21.0117 213.639 21.1055L210.334 30.6328C209.912 31.793 209.396 32.6719 208.787 33.2695C208.189 33.8789 207.404 34.1836 206.432 34.1836C206.279 34.1836 206.133 34.1777 205.992 34.166C205.77 34.1426 205.6 34.0312 205.482 33.832C205.4 33.6914 205.359 33.5449 205.359 33.3926C205.359 33.3223 205.365 33.252 205.377 33.1816C205.436 32.9707 205.559 32.8066 205.746 32.6895C205.934 32.584 206.15 32.5254 206.396 32.5137C207.311 32.4668 207.967 31.8457 208.365 30.6504L208.523 30.1055C208.559 30.0234 208.559 29.9414 208.523 29.8594L205.025 21.1055C204.99 21.0117 204.973 20.9238 204.973 20.8418C204.973 20.7129 205.014 20.584 205.096 20.4551C205.236 20.2441 205.43 20.1387 205.676 20.1387H205.729C206.045 20.1387 206.326 20.2324 206.572 20.4199C206.83 20.5957 207.012 20.8301 207.117 21.123L208.611 25.2363C208.682 25.4707 208.816 25.9043 209.016 26.5371C209.215 27.1699 209.373 27.6562 209.49 27.9961C209.502 28.0195 209.52 28.0312 209.543 28.0312C209.578 28.0312 209.602 28.0137 209.613 27.9785L210.369 25.2363L211.652 21.1055C211.746 20.8242 211.91 20.5957 212.145 20.4199C212.391 20.2324 212.66 20.1387 212.953 20.1387ZM221.021 30C220.74 30 220.494 29.9004 220.283 29.7012C220.084 29.4902 219.984 29.2441 219.984 28.9629V17.7832C219.984 17.502 220.084 17.2617 220.283 17.0625C220.494 16.8516 220.74 16.7461 221.021 16.7461H224.01C227.373 16.7461 229.055 18.082 229.055 20.7539C229.055 22.1484 228.598 23.2031 227.684 23.918C226.781 24.6211 225.58 24.9727 224.08 24.9727H222.217C222.123 24.9727 222.076 25.0195 222.076 25.1133V28.9629C222.076 29.2441 221.977 29.4902 221.777 29.7012C221.578 29.9004 221.332 30 221.039 30H221.021ZM222.076 23.1797C222.076 23.2617 222.123 23.3027 222.217 23.3027H223.887C224.941 23.3027 225.727 23.0977 226.242 22.6875C226.758 22.2656 227.016 21.6211 227.016 20.7539C227.016 19.8984 226.752 19.3008 226.225 18.9609C225.709 18.6094 224.9 18.4336 223.799 18.4336H222.217C222.123 18.4336 222.076 18.4746 222.076 18.5566V23.1797ZM236.754 29.877C236.203 30.1113 235.617 30.2285 234.996 30.2285C234.387 30.2285 233.801 30.1113 233.238 29.877C232.676 29.6426 232.178 29.3145 231.744 28.8926C231.322 28.459 230.982 27.9141 230.725 27.2578C230.467 26.5898 230.338 25.8574 230.338 25.0605C230.338 24.2637 230.467 23.5312 230.725 22.8633C230.982 22.1953 231.322 21.6445 231.744 21.2109C232.178 20.7773 232.676 20.4434 233.238 20.209C233.801 19.9629 234.387 19.8398 234.996 19.8398C235.617 19.8398 236.203 19.9629 236.754 20.209C237.316 20.4434 237.814 20.7773 238.248 21.2109C238.682 21.6445 239.027 22.1953 239.285 22.8633C239.543 23.5312 239.672 24.2637 239.672 25.0605C239.672 25.8574 239.543 26.5898 239.285 27.2578C239.027 27.9141 238.682 28.459 238.248 28.8926C237.814 29.3145 237.316 29.6426 236.754 29.877ZM234.996 28.541C235.781 28.541 236.402 28.2246 236.859 27.5918C237.316 26.959 237.545 26.1152 237.545 25.0605C237.545 24.0059 237.316 23.1621 236.859 22.5293C236.402 21.8848 235.781 21.5625 234.996 21.5625C234.234 21.5625 233.625 21.8848 233.168 22.5293C232.711 23.1621 232.482 24.0059 232.482 25.0605C232.482 26.1152 232.711 26.959 233.168 27.5918C233.625 28.2246 234.234 28.541 234.996 28.541ZM247.793 29.877C247.242 30.1113 246.656 30.2285 246.035 30.2285C245.426 30.2285 244.84 30.1113 244.277 29.877C243.715 29.6426 243.217 29.3145 242.783 28.8926C242.361 28.459 242.021 27.9141 241.764 27.2578C241.506 26.5898 241.377 25.8574 241.377 25.0605C241.377 24.2637 241.506 23.5312 241.764 22.8633C242.021 22.1953 242.361 21.6445 242.783 21.2109C243.217 20.7773 243.715 20.4434 244.277 20.209C244.84 19.9629 245.426 19.8398 246.035 19.8398C246.656 19.8398 247.242 19.9629 247.793 20.209C248.355 20.4434 248.854 20.7773 249.287 21.2109C249.721 21.6445 250.066 22.1953 250.324 22.8633C250.582 23.5312 250.711 24.2637 250.711 25.0605C250.711 25.8574 250.582 26.5898 250.324 27.2578C250.066 27.9141 249.721 28.459 249.287 28.8926C248.854 29.3145 248.355 29.6426 247.793 29.877ZM246.035 28.541C246.82 28.541 247.441 28.2246 247.898 27.5918C248.355 26.959 248.584 26.1152 248.584 25.0605C248.584 24.0059 248.355 23.1621 247.898 22.5293C247.441 21.8848 246.82 21.5625 246.035 21.5625C245.273 21.5625 244.664 21.8848 244.207 22.5293C243.75 23.1621 243.521 24.0059 243.521 25.0605C243.521 26.1152 243.75 26.959 244.207 27.5918C244.664 28.2246 245.273 28.541 246.035 28.541ZM255.176 30.2285C254.449 30.2285 253.922 30.0117 253.594 29.5781C253.277 29.1445 253.119 28.5117 253.119 27.6797V16.6758C253.119 16.3945 253.219 16.1543 253.418 15.9551C253.617 15.7559 253.857 15.6562 254.139 15.6562C254.432 15.6562 254.678 15.7559 254.877 15.9551C255.076 16.1543 255.176 16.3945 255.176 16.6758V27.7852C255.176 28.1367 255.27 28.3711 255.457 28.4883C255.48 28.5 255.533 28.5293 255.615 28.5762C255.697 28.623 255.756 28.6582 255.791 28.6816C255.826 28.7051 255.873 28.7402 255.932 28.7871C255.99 28.8223 256.031 28.8633 256.055 28.9102C256.09 28.957 256.107 29.0098 256.107 29.0684L256.16 29.2969C256.16 29.3438 256.16 29.3965 256.16 29.4551C256.16 29.6191 256.113 29.7715 256.02 29.9121C255.902 30.0996 255.732 30.2051 255.51 30.2285C255.404 30.2285 255.293 30.2285 255.176 30.2285Z" fill="#1E1E1E"/>
<path opacity="0.8" d="M140.777 76C140.496 76 140.25 75.9004 140.039 75.7012C139.84 75.4902 139.74 75.2441 139.74 74.9629V63.7832C139.74 63.502 139.84 63.2617 140.039 63.0625C140.25 62.8516 140.496 62.7461 140.777 62.7461H143.854C145.307 62.7461 146.449 63.0098 147.281 63.5371C148.113 64.0527 148.529 64.8789 148.529 66.0156C148.529 66.6484 148.359 67.2344 148.02 67.7734C147.691 68.3008 147.246 68.6641 146.684 68.8633C146.66 68.875 146.648 68.8984 146.648 68.9336C146.648 68.957 146.66 68.9688 146.684 68.9688C147.469 69.1445 148.09 69.502 148.547 70.041C149.016 70.5684 149.25 71.2598 149.25 72.1152C149.25 73.3809 148.787 74.3477 147.861 75.0156C146.936 75.6719 145.705 76 144.17 76H140.777ZM141.832 68.1426C141.832 68.2363 141.879 68.2832 141.973 68.2832H143.607C145.518 68.2832 146.473 67.6152 146.473 66.2793C146.473 65.5996 146.244 65.1133 145.787 64.8203C145.33 64.5156 144.627 64.3633 143.678 64.3633H141.973C141.879 64.3633 141.832 64.4102 141.832 64.5039V68.1426ZM141.832 74.2246C141.832 74.3184 141.879 74.3652 141.973 74.3652H143.941C146.109 74.3652 147.193 73.5801 147.193 72.0098C147.193 70.5801 146.109 69.8652 143.941 69.8652H141.973C141.879 69.8652 141.832 69.9062 141.832 69.9883V74.2246ZM154.471 76.2285C152.455 76.2285 151.447 74.9277 151.447 72.3262V67.1406C151.447 66.8477 151.547 66.6016 151.746 66.4023C151.945 66.2031 152.186 66.1035 152.467 66.1035C152.76 66.1035 153.006 66.2031 153.205 66.4023C153.416 66.6016 153.521 66.8477 153.521 67.1406V72.0801C153.521 72.9238 153.65 73.5332 153.908 73.9082C154.166 74.2715 154.588 74.4531 155.174 74.4531C155.607 74.4531 155.994 74.3477 156.334 74.1367C156.686 73.9258 157.061 73.5742 157.459 73.082C157.518 73.0117 157.547 72.9297 157.547 72.8359V67.1406C157.547 66.8477 157.646 66.6016 157.846 66.4023C158.057 66.2031 158.303 66.1035 158.584 66.1035C158.865 66.1035 159.105 66.2031 159.305 66.4023C159.516 66.6016 159.621 66.8477 159.621 67.1406V75.1562C159.621 75.3906 159.539 75.5898 159.375 75.7539C159.211 75.918 159.012 76 158.777 76C158.531 76 158.32 75.9238 158.145 75.7715C157.969 75.6074 157.863 75.4023 157.828 75.1562L157.775 74.541C157.764 74.5176 157.746 74.5059 157.723 74.5059C157.711 74.5059 157.699 74.5117 157.688 74.5234C157.207 75.0859 156.709 75.5137 156.193 75.8066C155.689 76.0879 155.115 76.2285 154.471 76.2285ZM164.473 75.7012C164.273 75.9004 164.027 76 163.734 76C163.453 76 163.213 75.9004 163.014 75.7012C162.814 75.502 162.715 75.2617 162.715 74.9805V66.9473C162.715 66.7129 162.797 66.5137 162.961 66.3496C163.125 66.1855 163.324 66.1035 163.559 66.1035C163.805 66.1035 164.016 66.1855 164.191 66.3496C164.367 66.502 164.467 66.7012 164.49 66.9473L164.561 67.8613C164.572 67.873 164.584 67.8789 164.596 67.8789C164.619 67.8789 164.631 67.873 164.631 67.8613C164.982 67.2285 165.404 66.7363 165.896 66.3848C166.389 66.0215 166.898 65.8398 167.426 65.8398C167.508 65.8398 167.584 65.8457 167.654 65.8574C167.912 65.8691 168.111 65.9863 168.252 66.209C168.346 66.373 168.393 66.5488 168.393 66.7363C168.393 66.8066 168.381 66.8828 168.357 66.9648C168.311 67.1992 168.182 67.3809 167.971 67.5098C167.771 67.6387 167.549 67.7031 167.303 67.7031C167.291 67.7031 167.279 67.7031 167.268 67.7031C167.244 67.7031 167.215 67.7031 167.18 67.7031C166.746 67.7031 166.318 67.8672 165.896 68.1953C165.475 68.5117 165.117 69.0156 164.824 69.707C164.789 69.7891 164.771 69.8711 164.771 69.9531V74.9805C164.771 75.2617 164.672 75.502 164.473 75.7012ZM171.82 75.7012C171.621 75.9004 171.375 76 171.082 76C170.801 76 170.561 75.9004 170.361 75.7012C170.162 75.502 170.062 75.2617 170.062 74.9805V66.9473C170.062 66.7129 170.145 66.5137 170.309 66.3496C170.473 66.1855 170.672 66.1035 170.906 66.1035C171.152 66.1035 171.363 66.1855 171.539 66.3496C171.727 66.502 171.832 66.7012 171.855 66.9473L171.908 67.4395C171.92 67.4629 171.932 67.4746 171.943 67.4746C171.967 67.4746 171.984 67.4688 171.996 67.457C172.523 66.9414 173.039 66.543 173.543 66.2617C174.059 65.9805 174.627 65.8398 175.248 65.8398C177.275 65.8398 178.289 67.1523 178.289 69.7773V74.9629C178.289 75.2559 178.189 75.502 177.99 75.7012C177.791 75.9004 177.545 76 177.252 76C176.971 76 176.725 75.9004 176.514 75.7012C176.314 75.502 176.215 75.2559 176.215 74.9629V70.0234C176.215 69.168 176.08 68.5586 175.811 68.1953C175.553 67.8203 175.131 67.6328 174.545 67.6328C174.123 67.6328 173.742 67.7324 173.402 67.9316C173.062 68.1191 172.664 68.4355 172.207 68.8809C172.148 68.9512 172.119 69.0273 172.119 69.1094V74.9805C172.119 75.2617 172.02 75.502 171.82 75.7012ZM183.035 75.7012C182.836 75.9004 182.59 76 182.297 76C182.016 76 181.775 75.9004 181.576 75.7012C181.377 75.502 181.277 75.2617 181.277 74.9805V67.123C181.277 66.8418 181.377 66.6016 181.576 66.4023C181.775 66.2031 182.016 66.1035 182.297 66.1035C182.59 66.1035 182.836 66.2031 183.035 66.4023C183.234 66.6016 183.334 66.8418 183.334 67.123V74.9805C183.334 75.2617 183.234 75.502 183.035 75.7012ZM183.246 63.9062C183 64.1289 182.684 64.2402 182.297 64.2402C181.922 64.2402 181.611 64.1289 181.365 63.9062C181.119 63.6719 180.996 63.3789 180.996 63.0273C180.996 62.6641 181.119 62.3711 181.365 62.1484C181.611 61.9141 181.922 61.7969 182.297 61.7969C182.684 61.7969 183 61.9141 183.246 62.1484C183.504 62.3711 183.633 62.6641 183.633 63.0273C183.633 63.3789 183.504 63.6719 183.246 63.9062ZM188.186 75.7012C187.986 75.9004 187.74 76 187.447 76C187.166 76 186.926 75.9004 186.727 75.7012C186.527 75.502 186.428 75.2617 186.428 74.9805V66.9473C186.428 66.7129 186.51 66.5137 186.674 66.3496C186.838 66.1855 187.037 66.1035 187.271 66.1035C187.518 66.1035 187.729 66.1855 187.904 66.3496C188.092 66.502 188.197 66.7012 188.221 66.9473L188.273 67.4395C188.285 67.4629 188.297 67.4746 188.309 67.4746C188.332 67.4746 188.35 67.4688 188.361 67.457C188.889 66.9414 189.404 66.543 189.908 66.2617C190.424 65.9805 190.992 65.8398 191.613 65.8398C193.641 65.8398 194.654 67.1523 194.654 69.7773V74.9629C194.654 75.2559 194.555 75.502 194.355 75.7012C194.156 75.9004 193.91 76 193.617 76C193.336 76 193.09 75.9004 192.879 75.7012C192.68 75.502 192.58 75.2559 192.58 74.9629V70.0234C192.58 69.168 192.445 68.5586 192.176 68.1953C191.918 67.8203 191.496 67.6328 190.91 67.6328C190.488 67.6328 190.107 67.7324 189.768 67.9316C189.428 68.1191 189.029 68.4355 188.572 68.8809C188.514 68.9512 188.484 69.0273 188.484 69.1094V74.9805C188.484 75.2617 188.385 75.502 188.186 75.7012ZM201.035 80.5C199.805 80.5 198.809 80.2715 198.047 79.8145C197.297 79.3691 196.922 78.7246 196.922 77.8809C196.922 77.4824 197.045 77.0957 197.291 76.7207C197.537 76.3574 197.883 76.0352 198.328 75.7539C198.352 75.7422 198.363 75.7246 198.363 75.7012C198.363 75.666 198.352 75.6367 198.328 75.6133C197.754 75.25 197.467 74.7109 197.467 73.9961C197.467 73.3281 197.824 72.7246 198.539 72.1855C198.551 72.1738 198.557 72.1562 198.557 72.1328C198.557 72.1094 198.551 72.0918 198.539 72.0801C198.176 71.7871 197.871 71.4121 197.625 70.9551C197.391 70.498 197.273 70 197.273 69.4609C197.273 68.3828 197.643 67.5215 198.381 66.877C199.119 66.2324 200.027 65.9102 201.105 65.9102C201.562 65.9102 202.002 65.9746 202.424 66.1035C202.506 66.1387 202.588 66.1562 202.67 66.1562H205.271C205.494 66.1562 205.676 66.2324 205.816 66.3848C205.969 66.5371 206.045 66.7188 206.045 66.9297C206.045 67.1406 205.969 67.3223 205.816 67.4746C205.676 67.627 205.494 67.7031 205.271 67.7031H204.287C204.264 67.7031 204.246 67.7148 204.234 67.7383C204.223 67.7617 204.229 67.7793 204.252 67.791C204.627 68.248 204.814 68.8223 204.814 69.5137C204.814 70.5684 204.463 71.4004 203.76 72.0098C203.057 72.6191 202.172 72.9238 201.105 72.9238C200.672 72.9238 200.25 72.8359 199.84 72.6602C199.758 72.6367 199.682 72.6543 199.611 72.7129C199.318 72.9941 199.172 73.3105 199.172 73.6621C199.172 73.9785 199.295 74.2188 199.541 74.3828C199.799 74.5469 200.227 74.6289 200.824 74.6289H202.652C203.836 74.6289 204.727 74.8223 205.324 75.209C205.922 75.5957 206.221 76.2051 206.221 77.0371C206.221 78.0215 205.74 78.8418 204.779 79.498C203.83 80.166 202.582 80.5 201.035 80.5ZM199.77 71.0078C200.133 71.3945 200.578 71.5879 201.105 71.5879C201.633 71.5879 202.072 71.3945 202.424 71.0078C202.787 70.6211 202.969 70.1055 202.969 69.4609C202.969 68.8164 202.793 68.3066 202.441 67.9316C202.09 67.5449 201.645 67.3516 201.105 67.3516C200.566 67.3516 200.115 67.5391 199.752 67.9141C199.4 68.2891 199.225 68.8047 199.225 69.4609C199.225 70.1055 199.406 70.6211 199.77 71.0078ZM201.334 79.1289C202.178 79.1289 202.869 78.9531 203.408 78.6016C203.947 78.25 204.217 77.8398 204.217 77.3711C204.217 76.9727 204.064 76.6914 203.76 76.5273C203.455 76.3633 202.986 76.2812 202.354 76.2812H200.859C200.461 76.2812 200.062 76.2461 199.664 76.1758C199.641 76.1641 199.617 76.1582 199.594 76.1582C199.535 76.1582 199.482 76.1816 199.436 76.2285C198.932 76.6152 198.68 77.0664 198.68 77.582C198.68 78.0625 198.914 78.4375 199.383 78.707C199.863 78.9883 200.514 79.1289 201.334 79.1289ZM213.094 72.4141C213.094 73.0703 213.322 73.6035 213.779 74.0137C214.248 74.4121 214.828 74.6113 215.52 74.6113C216.246 74.6113 216.973 74.3418 217.699 73.8027C217.77 73.7441 217.77 73.6855 217.699 73.627C216.457 72.5488 215.426 71.418 214.605 70.2344C214.547 70.1641 214.488 70.1582 214.43 70.2168C213.539 70.9785 213.094 71.7109 213.094 72.4141ZM214.553 65.7168C214.553 66.3027 214.723 66.959 215.062 67.6855C215.098 67.7676 215.15 67.7852 215.221 67.7383C215.877 67.3164 216.369 66.918 216.697 66.543C217.037 66.168 217.207 65.7402 217.207 65.2598C217.207 64.873 217.107 64.5566 216.908 64.3105C216.721 64.0645 216.434 63.9414 216.047 63.9414C215.613 63.9414 215.256 64.1113 214.975 64.4512C214.693 64.7793 214.553 65.2012 214.553 65.7168ZM222.041 74.2598C222.264 74.3535 222.434 74.5059 222.551 74.7168C222.621 74.8574 222.656 74.9922 222.656 75.1211C222.656 75.2148 222.645 75.3027 222.621 75.3848C222.539 75.6309 222.393 75.8125 222.182 75.9297C222.053 76 221.924 76.0352 221.795 76.0352C221.701 76.0352 221.607 76.0176 221.514 75.9824C220.787 75.7129 220.055 75.332 219.316 74.8398C219.246 74.793 219.176 74.7988 219.105 74.8574C218.004 75.7715 216.721 76.2285 215.256 76.2285C214.014 76.2285 213.012 75.8828 212.25 75.1914C211.5 74.4883 211.125 73.6035 211.125 72.5371C211.125 71.7285 211.342 71.0371 211.775 70.4629C212.209 69.877 212.807 69.3262 213.568 68.8105C213.639 68.752 213.656 68.6875 213.621 68.6172C213.082 67.5508 212.812 66.5898 212.812 65.7344C212.812 64.8203 213.111 64.0527 213.709 63.4316C214.307 62.8105 215.08 62.5 216.029 62.5C216.896 62.5 217.582 62.752 218.086 63.2559C218.59 63.7598 218.842 64.4219 218.842 65.2422C218.842 65.6406 218.766 66.0215 218.613 66.3848C218.473 66.748 218.25 67.0938 217.945 67.4219C217.641 67.75 217.354 68.0254 217.084 68.248C216.814 68.459 216.457 68.7227 216.012 69.0391C215.941 69.0977 215.936 69.1621 215.994 69.2324C216.803 70.3574 217.793 71.3945 218.965 72.3438C219.023 72.3906 219.082 72.3789 219.141 72.3086C219.715 71.5352 220.184 70.6504 220.547 69.6543C220.652 69.3848 220.816 69.168 221.039 69.0039C221.262 68.8281 221.514 68.7402 221.795 68.7402C222.029 68.7402 222.217 68.8398 222.357 69.0391C222.451 69.1562 222.498 69.2852 222.498 69.4258C222.498 69.4961 222.486 69.5723 222.463 69.6543C221.971 71.0137 221.326 72.2324 220.529 73.3105C220.471 73.3809 220.482 73.4336 220.564 73.4688C221.08 73.7969 221.572 74.0605 222.041 74.2598ZM231.006 70.4629C230.994 70.4863 231 70.5156 231.023 70.5508C231.047 70.5742 231.07 70.5859 231.094 70.5859H234.451C234.486 70.5859 234.51 70.5742 234.521 70.5508C234.545 70.5156 234.557 70.4863 234.557 70.4629L234.064 68.793C233.842 68.0781 233.426 66.625 232.816 64.4336C232.805 64.4102 232.787 64.3984 232.764 64.3984C232.74 64.3984 232.729 64.4102 232.729 64.4336C232.4 65.7344 231.996 67.1875 231.516 68.793L231.006 70.4629ZM237.246 76C236.941 76 236.666 75.9121 236.42 75.7363C236.174 75.5488 236.004 75.3027 235.91 74.998L235.137 72.3438C235.102 72.2617 235.043 72.2207 234.961 72.2207H230.619C230.525 72.2207 230.467 72.2617 230.443 72.3438L229.652 74.998C229.559 75.3027 229.389 75.5488 229.143 75.7363C228.896 75.9121 228.621 76 228.316 76H228.264C228.006 76 227.801 75.8945 227.648 75.6836C227.555 75.5547 227.508 75.4141 227.508 75.2617C227.508 75.1797 227.525 75.0977 227.561 75.0156L231.287 63.7305C231.393 63.4375 231.568 63.2031 231.814 63.0273C232.061 62.8398 232.342 62.7461 232.658 62.7461H232.992C233.297 62.7461 233.572 62.8398 233.818 63.0273C234.076 63.2031 234.258 63.4375 234.363 63.7305L238.09 75.0156C238.125 75.0977 238.143 75.1797 238.143 75.2617C238.143 75.4141 238.09 75.5547 237.984 75.6836C237.844 75.8945 237.645 76 237.387 76H237.246ZM241.729 75.7012C241.529 75.9004 241.283 76 240.99 76C240.709 76 240.469 75.9004 240.27 75.7012C240.07 75.502 239.971 75.2617 239.971 74.9805V67.123C239.971 66.8418 240.07 66.6016 240.27 66.4023C240.469 66.2031 240.709 66.1035 240.99 66.1035C241.283 66.1035 241.529 66.2031 241.729 66.4023C241.928 66.6016 242.027 66.8418 242.027 67.123V74.9805C242.027 75.2617 241.928 75.502 241.729 75.7012ZM241.939 63.9062C241.693 64.1289 241.377 64.2402 240.99 64.2402C240.615 64.2402 240.305 64.1289 240.059 63.9062C239.812 63.6719 239.689 63.3789 239.689 63.0273C239.689 62.6641 239.812 62.3711 240.059 62.1484C240.305 61.9141 240.615 61.7969 240.99 61.7969C241.377 61.7969 241.693 61.9141 241.939 62.1484C242.197 62.3711 242.326 62.6641 242.326 63.0273C242.326 63.3789 242.197 63.6719 241.939 63.9062ZM246.879 75.7012C246.68 75.9004 246.434 76 246.141 76C245.859 76 245.619 75.9004 245.42 75.7012C245.221 75.502 245.121 75.2617 245.121 74.9805V66.9473C245.121 66.7129 245.203 66.5137 245.367 66.3496C245.531 66.1855 245.73 66.1035 245.965 66.1035C246.211 66.1035 246.422 66.1855 246.598 66.3496C246.773 66.502 246.873 66.7012 246.896 66.9473L246.967 67.8613C246.979 67.873 246.99 67.8789 247.002 67.8789C247.025 67.8789 247.037 67.873 247.037 67.8613C247.389 67.2285 247.811 66.7363 248.303 66.3848C248.795 66.0215 249.305 65.8398 249.832 65.8398C249.914 65.8398 249.99 65.8457 250.061 65.8574C250.318 65.8691 250.518 65.9863 250.658 66.209C250.752 66.373 250.799 66.5488 250.799 66.7363C250.799 66.8066 250.787 66.8828 250.764 66.9648C250.717 67.1992 250.588 67.3809 250.377 67.5098C250.178 67.6387 249.955 67.7031 249.709 67.7031C249.697 67.7031 249.686 67.7031 249.674 67.7031C249.65 67.7031 249.621 67.7031 249.586 67.7031C249.152 67.7031 248.725 67.8672 248.303 68.1953C247.881 68.5117 247.523 69.0156 247.23 69.707C247.195 69.7891 247.178 69.8711 247.178 69.9531V74.9805C247.178 75.2617 247.078 75.502 246.879 75.7012ZM255.721 76.2285C254.467 76.2285 253.471 75.7773 252.732 74.875C251.994 73.9609 251.625 72.6895 251.625 71.0605C251.625 69.5137 252.041 68.2598 252.873 67.2988C253.717 66.3262 254.719 65.8398 255.879 65.8398C256.383 65.8398 256.828 65.9277 257.215 66.1035C257.613 66.2676 258.023 66.5254 258.445 66.877C258.457 66.8887 258.475 66.8945 258.498 66.8945C258.521 66.8828 258.533 66.8594 258.533 66.8242L258.445 65.3301V62.6934C258.445 62.4004 258.545 62.1543 258.744 61.9551C258.955 61.7559 259.201 61.6562 259.482 61.6562C259.775 61.6562 260.021 61.7559 260.221 61.9551C260.42 62.1543 260.52 62.4004 260.52 62.6934V75.1562C260.52 75.3906 260.438 75.5898 260.273 75.7539C260.109 75.918 259.91 76 259.676 76C259.43 76 259.213 75.9238 259.025 75.7715C258.838 75.6074 258.727 75.4023 258.691 75.1562L258.656 74.9102C258.656 74.8984 258.645 74.8926 258.621 74.8926C258.598 74.8926 258.58 74.8984 258.568 74.9102C257.701 75.7891 256.752 76.2285 255.721 76.2285ZM256.195 74.5234C256.969 74.5234 257.689 74.1543 258.357 73.416C258.416 73.3574 258.445 73.2812 258.445 73.1875V68.5996C258.445 68.5176 258.416 68.4473 258.357 68.3887C257.713 67.8496 257.016 67.5801 256.266 67.5801C255.562 67.5801 254.971 67.8965 254.49 68.5293C254.01 69.1504 253.77 69.9824 253.77 71.0254C253.77 72.1504 253.98 73.0176 254.402 73.627C254.824 74.2246 255.422 74.5234 256.195 74.5234ZM265.389 75.7012C265.189 75.9004 264.943 76 264.65 76C264.369 76 264.129 75.9004 263.93 75.7012C263.73 75.502 263.631 75.2617 263.631 74.9805V66.9473C263.631 66.7129 263.713 66.5137 263.877 66.3496C264.041 66.1855 264.24 66.1035 264.475 66.1035C264.721 66.1035 264.932 66.1855 265.107 66.3496C265.283 66.502 265.383 66.7012 265.406 66.9473L265.477 67.8613C265.488 67.873 265.5 67.8789 265.512 67.8789C265.535 67.8789 265.547 67.873 265.547 67.8613C265.898 67.2285 266.32 66.7363 266.812 66.3848C267.305 66.0215 267.814 65.8398 268.342 65.8398C268.424 65.8398 268.5 65.8457 268.57 65.8574C268.828 65.8691 269.027 65.9863 269.168 66.209C269.262 66.373 269.309 66.5488 269.309 66.7363C269.309 66.8066 269.297 66.8828 269.273 66.9648C269.227 67.1992 269.098 67.3809 268.887 67.5098C268.688 67.6387 268.465 67.7031 268.219 67.7031C268.207 67.7031 268.195 67.7031 268.184 67.7031C268.16 67.7031 268.131 67.7031 268.096 67.7031C267.662 67.7031 267.234 67.8672 266.812 68.1953C266.391 68.5117 266.033 69.0156 265.74 69.707C265.705 69.7891 265.688 69.8711 265.688 69.9531V74.9805C265.688 75.2617 265.588 75.502 265.389 75.7012ZM276.516 75.877C275.965 76.1113 275.379 76.2285 274.758 76.2285C274.148 76.2285 273.562 76.1113 273 75.877C272.438 75.6426 271.939 75.3145 271.506 74.8926C271.084 74.459 270.744 73.9141 270.486 73.2578C270.229 72.5898 270.1 71.8574 270.1 71.0605C270.1 70.2637 270.229 69.5312 270.486 68.8633C270.744 68.1953 271.084 67.6445 271.506 67.2109C271.939 66.7773 272.438 66.4434 273 66.209C273.562 65.9629 274.148 65.8398 274.758 65.8398C275.379 65.8398 275.965 65.9629 276.516 66.209C277.078 66.4434 277.576 66.7773 278.01 67.2109C278.443 67.6445 278.789 68.1953 279.047 68.8633C279.305 69.5312 279.434 70.2637 279.434 71.0605C279.434 71.8574 279.305 72.5898 279.047 73.2578C278.789 73.9141 278.443 74.459 278.01 74.8926C277.576 75.3145 277.078 75.6426 276.516 75.877ZM274.758 74.541C275.543 74.541 276.164 74.2246 276.621 73.5918C277.078 72.959 277.307 72.1152 277.307 71.0605C277.307 70.0059 277.078 69.1621 276.621 68.5293C276.164 67.8848 275.543 67.5625 274.758 67.5625C273.996 67.5625 273.387 67.8848 272.93 68.5293C272.473 69.1621 272.244 70.0059 272.244 71.0605C272.244 72.1152 272.473 72.959 272.93 73.5918C273.387 74.2246 273.996 74.541 274.758 74.541ZM283.6 79.7617C283.4 79.9609 283.154 80.0605 282.861 80.0605C282.58 80.0605 282.34 79.9609 282.141 79.7617C281.941 79.5625 281.842 79.3164 281.842 79.0234V66.9824C281.842 66.748 281.924 66.5488 282.088 66.3848C282.252 66.2207 282.451 66.1387 282.686 66.1387C282.932 66.1387 283.143 66.2207 283.318 66.3848C283.506 66.5371 283.617 66.7363 283.652 66.9824L283.688 67.1934C283.699 67.2168 283.711 67.2285 283.723 67.2285C283.746 67.2285 283.764 67.2227 283.775 67.2109C284.83 66.332 285.838 65.8926 286.799 65.8926C288.041 65.8926 289.002 66.3496 289.682 67.2637C290.373 68.166 290.719 69.3906 290.719 70.9375C290.719 71.7578 290.602 72.5137 290.367 73.2051C290.133 73.8848 289.816 74.4473 289.418 74.8926C289.02 75.3262 288.562 75.666 288.047 75.9121C287.543 76.1582 287.01 76.2812 286.447 76.2812C285.615 76.2812 284.783 75.9355 283.951 75.2441C283.928 75.2324 283.904 75.2324 283.881 75.2441C283.857 75.2559 283.846 75.2734 283.846 75.2969L283.898 76.8613V79.0234C283.898 79.3164 283.799 79.5625 283.6 79.7617ZM286.061 74.5762C286.799 74.5762 287.402 74.2598 287.871 73.627C288.34 72.9824 288.574 72.0977 288.574 70.9727C288.574 68.7344 287.801 67.6152 286.254 67.6152C285.551 67.6152 284.795 67.9902 283.986 68.7402C283.928 68.7988 283.898 68.8691 283.898 68.9512V73.5391C283.898 73.6211 283.928 73.6914 283.986 73.75C284.666 74.3008 285.357 74.5762 286.061 74.5762Z" fill="#1E1E1E"/>
<path opacity="0.8" d="M140.777 122C140.496 122 140.25 121.9 140.039 121.701C139.84 121.49 139.74 121.244 139.74 120.963V109.783C139.74 109.502 139.84 109.262 140.039 109.062C140.25 108.852 140.496 108.746 140.777 108.746H146.719C146.965 108.746 147.17 108.834 147.334 109.01C147.51 109.174 147.598 109.379 147.598 109.625C147.598 109.871 147.51 110.082 147.334 110.258C147.17 110.422 146.965 110.504 146.719 110.504H141.973C141.879 110.504 141.832 110.545 141.832 110.627V114.424C141.832 114.506 141.879 114.547 141.973 114.547H145.857C146.104 114.547 146.309 114.635 146.473 114.811C146.648 114.975 146.736 115.18 146.736 115.426C146.736 115.66 146.648 115.865 146.473 116.041C146.309 116.205 146.104 116.287 145.857 116.287H141.973C141.879 116.287 141.832 116.334 141.832 116.428V120.963C141.832 121.244 141.732 121.49 141.533 121.701C141.334 121.9 141.088 122 140.795 122H140.777ZM155.174 121.877C154.623 122.111 154.037 122.229 153.416 122.229C152.807 122.229 152.221 122.111 151.658 121.877C151.096 121.643 150.598 121.314 150.164 120.893C149.742 120.459 149.402 119.914 149.145 119.258C148.887 118.59 148.758 117.857 148.758 117.061C148.758 116.264 148.887 115.531 149.145 114.863C149.402 114.195 149.742 113.645 150.164 113.211C150.598 112.777 151.096 112.443 151.658 112.209C152.221 111.963 152.807 111.84 153.416 111.84C154.037 111.84 154.623 111.963 155.174 112.209C155.736 112.443 156.234 112.777 156.668 113.211C157.102 113.645 157.447 114.195 157.705 114.863C157.963 115.531 158.092 116.264 158.092 117.061C158.092 117.857 157.963 118.59 157.705 119.258C157.447 119.914 157.102 120.459 156.668 120.893C156.234 121.314 155.736 121.643 155.174 121.877ZM153.416 120.541C154.201 120.541 154.822 120.225 155.279 119.592C155.736 118.959 155.965 118.115 155.965 117.061C155.965 116.006 155.736 115.162 155.279 114.529C154.822 113.885 154.201 113.562 153.416 113.562C152.654 113.562 152.045 113.885 151.588 114.529C151.131 115.162 150.902 116.006 150.902 117.061C150.902 118.115 151.131 118.959 151.588 119.592C152.045 120.225 152.654 120.541 153.416 120.541ZM161.713 122C161.432 122 161.186 121.9 160.975 121.701C160.775 121.49 160.676 121.244 160.676 120.963V109.783C160.676 109.502 160.775 109.262 160.975 109.062C161.186 108.852 161.432 108.746 161.713 108.746H167.654C167.9 108.746 168.105 108.834 168.27 109.01C168.445 109.174 168.533 109.379 168.533 109.625C168.533 109.871 168.445 110.082 168.27 110.258C168.105 110.422 167.9 110.504 167.654 110.504H162.908C162.814 110.504 162.768 110.545 162.768 110.627V114.424C162.768 114.506 162.814 114.547 162.908 114.547H166.793C167.039 114.547 167.244 114.635 167.408 114.811C167.584 114.975 167.672 115.18 167.672 115.426C167.672 115.66 167.584 115.865 167.408 116.041C167.244 116.205 167.039 116.287 166.793 116.287H162.908C162.814 116.287 162.768 116.334 162.768 116.428V120.963C162.768 121.244 162.668 121.49 162.469 121.701C162.27 121.9 162.023 122 161.73 122H161.713ZM176.109 121.877C175.559 122.111 174.973 122.229 174.352 122.229C173.742 122.229 173.156 122.111 172.594 121.877C172.031 121.643 171.533 121.314 171.1 120.893C170.678 120.459 170.338 119.914 170.08 119.258C169.822 118.59 169.693 117.857 169.693 117.061C169.693 116.264 169.822 115.531 170.08 114.863C170.338 114.195 170.678 113.645 171.1 113.211C171.533 112.777 172.031 112.443 172.594 112.209C173.156 111.963 173.742 111.84 174.352 111.84C174.973 111.84 175.559 111.963 176.109 112.209C176.672 112.443 177.17 112.777 177.604 113.211C178.037 113.645 178.383 114.195 178.641 114.863C178.898 115.531 179.027 116.264 179.027 117.061C179.027 117.857 178.898 118.59 178.641 119.258C178.383 119.914 178.037 120.459 177.604 120.893C177.17 121.314 176.672 121.643 176.109 121.877ZM174.352 120.541C175.137 120.541 175.758 120.225 176.215 119.592C176.672 118.959 176.9 118.115 176.9 117.061C176.9 116.006 176.672 115.162 176.215 114.529C175.758 113.885 175.137 113.562 174.352 113.562C173.59 113.562 172.98 113.885 172.523 114.529C172.066 115.162 171.838 116.006 171.838 117.061C171.838 118.115 172.066 118.959 172.523 119.592C172.98 120.225 173.59 120.541 174.352 120.541ZM190.822 122.229C189.111 122.229 187.699 121.625 186.586 120.418C185.484 119.199 184.934 117.529 184.934 115.408C184.934 114.354 185.086 113.393 185.391 112.525C185.707 111.646 186.135 110.914 186.674 110.328C187.213 109.742 187.846 109.291 188.572 108.975C189.299 108.658 190.078 108.5 190.91 108.5C192.07 108.5 193.113 108.863 194.039 109.59C194.238 109.742 194.338 109.953 194.338 110.223C194.338 110.457 194.262 110.662 194.109 110.838C193.957 111.014 193.764 111.107 193.529 111.119C193.506 111.119 193.482 111.119 193.459 111.119C193.248 111.119 193.055 111.061 192.879 110.943C192.293 110.521 191.648 110.311 190.945 110.311C189.797 110.311 188.865 110.768 188.15 111.682C187.436 112.584 187.078 113.803 187.078 115.338C187.078 116.908 187.418 118.15 188.098 119.064C188.789 119.967 189.721 120.418 190.893 120.418C191.748 120.418 192.516 120.143 193.195 119.592C193.371 119.463 193.564 119.398 193.775 119.398C193.787 119.398 193.805 119.398 193.828 119.398C194.051 119.41 194.238 119.498 194.391 119.662C194.543 119.85 194.619 120.061 194.619 120.295C194.619 120.553 194.525 120.77 194.338 120.945C193.354 121.801 192.182 122.229 190.822 122.229ZM199.154 122.229C198.428 122.229 197.9 122.012 197.572 121.578C197.256 121.145 197.098 120.512 197.098 119.68V108.676C197.098 108.395 197.197 108.154 197.396 107.955C197.596 107.756 197.836 107.656 198.117 107.656C198.41 107.656 198.656 107.756 198.855 107.955C199.055 108.154 199.154 108.395 199.154 108.676V119.785C199.154 120.137 199.248 120.371 199.436 120.488C199.459 120.5 199.512 120.529 199.594 120.576C199.676 120.623 199.734 120.658 199.77 120.682C199.805 120.705 199.852 120.74 199.91 120.787C199.969 120.822 200.01 120.863 200.033 120.91C200.068 120.957 200.086 121.01 200.086 121.068L200.139 121.297C200.139 121.344 200.139 121.396 200.139 121.455C200.139 121.619 200.092 121.771 199.998 121.912C199.881 122.1 199.711 122.205 199.488 122.229C199.383 122.229 199.271 122.229 199.154 122.229ZM205.359 122.229C203.344 122.229 202.336 120.928 202.336 118.326V113.141C202.336 112.848 202.436 112.602 202.635 112.402C202.834 112.203 203.074 112.104 203.355 112.104C203.648 112.104 203.895 112.203 204.094 112.402C204.305 112.602 204.41 112.848 204.41 113.141V118.08C204.41 118.924 204.539 119.533 204.797 119.908C205.055 120.271 205.477 120.453 206.062 120.453C206.496 120.453 206.883 120.348 207.223 120.137C207.574 119.926 207.949 119.574 208.348 119.082C208.406 119.012 208.436 118.93 208.436 118.836V113.141C208.436 112.848 208.535 112.602 208.734 112.402C208.945 112.203 209.191 112.104 209.473 112.104C209.754 112.104 209.994 112.203 210.193 112.402C210.404 112.602 210.51 112.848 210.51 113.141V121.156C210.51 121.391 210.428 121.59 210.264 121.754C210.1 121.918 209.9 122 209.666 122C209.42 122 209.209 121.924 209.033 121.771C208.857 121.607 208.752 121.402 208.717 121.156L208.664 120.541C208.652 120.518 208.635 120.506 208.611 120.506C208.6 120.506 208.588 120.512 208.576 120.523C208.096 121.086 207.598 121.514 207.082 121.807C206.578 122.088 206.004 122.229 205.359 122.229ZM218.209 122.229C217.271 122.229 216.369 121.818 215.502 120.998C215.49 120.986 215.473 120.98 215.449 120.98C215.438 120.98 215.426 120.986 215.414 120.998L215.379 121.209C215.332 121.432 215.215 121.619 215.027 121.771C214.852 121.924 214.646 122 214.412 122C214.189 122 213.996 121.924 213.832 121.771C213.68 121.607 213.604 121.414 213.604 121.191V108.676C213.604 108.395 213.703 108.154 213.902 107.955C214.102 107.756 214.342 107.656 214.623 107.656C214.916 107.656 215.162 107.756 215.361 107.955C215.561 108.154 215.66 108.395 215.66 108.676V111.453L215.607 113.018C215.607 113.041 215.619 113.059 215.643 113.07C215.666 113.082 215.684 113.076 215.695 113.053C216.668 112.244 217.623 111.84 218.561 111.84C219.791 111.84 220.752 112.297 221.443 113.211C222.135 114.125 222.48 115.35 222.48 116.885C222.48 118.525 222.059 119.826 221.215 120.787C220.383 121.748 219.381 122.229 218.209 122.229ZM217.822 120.523C218.561 120.523 219.164 120.207 219.633 119.574C220.102 118.941 220.336 118.057 220.336 116.92C220.336 114.693 219.562 113.58 218.016 113.58C217.289 113.58 216.533 113.949 215.748 114.688C215.689 114.746 215.66 114.822 215.66 114.916V119.486C215.66 119.58 215.695 119.656 215.766 119.715C216.41 120.254 217.096 120.523 217.822 120.523ZM230.18 122C229.898 122 229.652 121.9 229.441 121.701C229.242 121.49 229.143 121.244 229.143 120.963V109.783C229.143 109.502 229.242 109.262 229.441 109.062C229.652 108.852 229.898 108.746 230.18 108.746H236.104C236.35 108.746 236.555 108.834 236.719 109.01C236.895 109.174 236.982 109.379 236.982 109.625C236.982 109.871 236.895 110.082 236.719 110.258C236.555 110.422 236.35 110.504 236.104 110.504H231.375C231.281 110.504 231.234 110.545 231.234 110.627V114.055C231.234 114.148 231.281 114.195 231.375 114.195H235.207C235.453 114.195 235.664 114.283 235.84 114.459C236.016 114.623 236.104 114.828 236.104 115.074C236.104 115.32 236.016 115.531 235.84 115.707C235.664 115.871 235.453 115.953 235.207 115.953H231.375C231.281 115.953 231.234 115.994 231.234 116.076V120.102C231.234 120.195 231.281 120.242 231.375 120.242H236.297C236.543 120.242 236.748 120.33 236.912 120.506C237.088 120.67 237.176 120.875 237.176 121.121C237.176 121.367 237.088 121.578 236.912 121.754C236.748 121.918 236.543 122 236.297 122H230.18ZM243.785 122.229C242.414 122.229 241.283 121.771 240.393 120.857C239.502 119.932 239.057 118.666 239.057 117.061C239.057 116.264 239.186 115.531 239.443 114.863C239.713 114.195 240.07 113.645 240.516 113.211C240.973 112.777 241.494 112.443 242.08 112.209C242.678 111.963 243.305 111.84 243.961 111.84C244.758 111.84 245.496 112.051 246.176 112.473C246.375 112.602 246.486 112.783 246.51 113.018C246.521 113.053 246.527 113.094 246.527 113.141C246.527 113.328 246.463 113.498 246.334 113.65C246.205 113.826 246.023 113.932 245.789 113.967C245.742 113.967 245.695 113.967 245.648 113.967C245.473 113.967 245.303 113.926 245.139 113.844C244.787 113.656 244.424 113.562 244.049 113.562C243.217 113.562 242.531 113.885 241.992 114.529C241.465 115.174 241.201 116.018 241.201 117.061C241.201 118.104 241.459 118.947 241.975 119.592C242.49 120.225 243.164 120.541 243.996 120.541C244.5 120.541 244.998 120.395 245.49 120.102C245.631 120.02 245.777 119.979 245.93 119.979C245.977 119.979 246.029 119.984 246.088 119.996C246.299 120.043 246.463 120.154 246.58 120.33C246.674 120.471 246.721 120.629 246.721 120.805C246.721 120.852 246.715 120.904 246.703 120.963C246.668 121.197 246.551 121.373 246.352 121.49C245.566 121.982 244.711 122.229 243.785 122.229ZM254.332 121.877C253.781 122.111 253.195 122.229 252.574 122.229C251.965 122.229 251.379 122.111 250.816 121.877C250.254 121.643 249.756 121.314 249.322 120.893C248.9 120.459 248.561 119.914 248.303 119.258C248.045 118.59 247.916 117.857 247.916 117.061C247.916 116.264 248.045 115.531 248.303 114.863C248.561 114.195 248.9 113.645 249.322 113.211C249.756 112.777 250.254 112.443 250.816 112.209C251.379 111.963 251.965 111.84 252.574 111.84C253.195 111.84 253.781 111.963 254.332 112.209C254.895 112.443 255.393 112.777 255.826 113.211C256.26 113.645 256.605 114.195 256.863 114.863C257.121 115.531 257.25 116.264 257.25 117.061C257.25 117.857 257.121 118.59 256.863 119.258C256.605 119.914 256.26 120.459 255.826 120.893C255.393 121.314 254.895 121.643 254.332 121.877ZM252.574 120.541C253.359 120.541 253.98 120.225 254.438 119.592C254.895 118.959 255.123 118.115 255.123 117.061C255.123 116.006 254.895 115.162 254.438 114.529C253.98 113.885 253.359 113.562 252.574 113.562C251.812 113.562 251.203 113.885 250.746 114.529C250.289 115.162 250.061 116.006 250.061 117.061C250.061 118.115 250.289 118.959 250.746 119.592C251.203 120.225 251.812 120.541 252.574 120.541ZM262.277 122.229C261.211 122.229 260.191 121.936 259.219 121.35C259.02 121.232 258.902 121.057 258.867 120.822C258.867 120.775 258.867 120.729 258.867 120.682C258.867 120.506 258.92 120.348 259.025 120.207C259.166 120.02 259.348 119.908 259.57 119.873C259.617 119.873 259.664 119.873 259.711 119.873C259.887 119.873 260.045 119.92 260.186 120.014C260.889 120.447 261.604 120.664 262.33 120.664C262.893 120.664 263.32 120.541 263.613 120.295C263.918 120.049 264.07 119.727 264.07 119.328C264.07 119.188 264.047 119.059 264 118.941C263.953 118.812 263.859 118.695 263.719 118.59C263.59 118.473 263.479 118.379 263.385 118.309C263.303 118.238 263.145 118.15 262.91 118.045C262.676 117.939 262.512 117.869 262.418 117.834C262.336 117.799 262.154 117.729 261.873 117.623C261.475 117.471 261.135 117.324 260.854 117.184C260.584 117.043 260.291 116.861 259.975 116.639C259.67 116.404 259.436 116.129 259.271 115.812C259.119 115.496 259.043 115.139 259.043 114.74C259.043 113.896 259.359 113.205 259.992 112.666C260.637 112.115 261.492 111.84 262.559 111.84C263.449 111.84 264.305 112.08 265.125 112.561C265.312 112.678 265.424 112.848 265.459 113.07C265.459 113.105 265.459 113.146 265.459 113.193C265.459 113.357 265.406 113.51 265.301 113.65C265.16 113.826 264.979 113.932 264.756 113.967C264.709 113.979 264.656 113.984 264.598 113.984C264.434 113.984 264.281 113.943 264.141 113.861C263.613 113.58 263.098 113.439 262.594 113.439C262.078 113.439 261.686 113.551 261.416 113.773C261.146 113.996 261.012 114.289 261.012 114.652C261.012 114.805 261.047 114.951 261.117 115.092C261.199 115.221 261.287 115.332 261.381 115.426C261.486 115.508 261.639 115.602 261.838 115.707C262.037 115.801 262.201 115.877 262.33 115.936C262.471 115.982 262.676 116.059 262.945 116.164C263.016 116.188 263.074 116.205 263.121 116.217C263.473 116.357 263.754 116.475 263.965 116.568C264.176 116.65 264.428 116.785 264.721 116.973C265.025 117.148 265.26 117.33 265.424 117.518C265.588 117.705 265.729 117.951 265.846 118.256C265.975 118.549 266.039 118.871 266.039 119.223C266.039 120.09 265.705 120.811 265.037 121.385C264.369 121.947 263.449 122.229 262.277 122.229ZM275.197 112.139C275.443 112.139 275.643 112.244 275.795 112.455C275.877 112.584 275.918 112.719 275.918 112.859C275.918 112.93 275.906 113.012 275.883 113.105L272.578 122.633C272.156 123.793 271.641 124.672 271.031 125.27C270.434 125.879 269.648 126.184 268.676 126.184C268.523 126.184 268.377 126.178 268.236 126.166C268.014 126.143 267.844 126.031 267.727 125.832C267.645 125.691 267.604 125.545 267.604 125.393C267.604 125.322 267.609 125.252 267.621 125.182C267.68 124.971 267.803 124.807 267.99 124.689C268.178 124.584 268.395 124.525 268.641 124.514C269.555 124.467 270.211 123.846 270.609 122.65L270.768 122.105C270.803 122.023 270.803 121.941 270.768 121.859L267.27 113.105C267.234 113.012 267.217 112.924 267.217 112.842C267.217 112.713 267.258 112.584 267.34 112.455C267.48 112.244 267.674 112.139 267.92 112.139H267.973C268.289 112.139 268.57 112.232 268.816 112.42C269.074 112.596 269.256 112.83 269.361 113.123L270.855 117.236C270.926 117.471 271.061 117.904 271.26 118.537C271.459 119.17 271.617 119.656 271.734 119.996C271.746 120.02 271.764 120.031 271.787 120.031C271.822 120.031 271.846 120.014 271.857 119.979L272.613 117.236L273.896 113.105C273.99 112.824 274.154 112.596 274.389 112.42C274.635 112.232 274.904 112.139 275.197 112.139ZM280.699 122.229C279.633 122.229 278.613 121.936 277.641 121.35C277.441 121.232 277.324 121.057 277.289 120.822C277.289 120.775 277.289 120.729 277.289 120.682C277.289 120.506 277.342 120.348 277.447 120.207C277.588 120.02 277.77 119.908 277.992 119.873C278.039 119.873 278.086 119.873 278.133 119.873C278.309 119.873 278.467 119.92 278.607 120.014C279.311 120.447 280.025 120.664 280.752 120.664C281.314 120.664 281.742 120.541 282.035 120.295C282.34 120.049 282.492 119.727 282.492 119.328C282.492 119.188 282.469 119.059 282.422 118.941C282.375 118.812 282.281 118.695 282.141 118.59C282.012 118.473 281.9 118.379 281.807 118.309C281.725 118.238 281.566 118.15 281.332 118.045C281.098 117.939 280.934 117.869 280.84 117.834C280.758 117.799 280.576 117.729 280.295 117.623C279.896 117.471 279.557 117.324 279.275 117.184C279.006 117.043 278.713 116.861 278.396 116.639C278.092 116.404 277.857 116.129 277.693 115.812C277.541 115.496 277.465 115.139 277.465 114.74C277.465 113.896 277.781 113.205 278.414 112.666C279.059 112.115 279.914 111.84 280.98 111.84C281.871 111.84 282.727 112.08 283.547 112.561C283.734 112.678 283.846 112.848 283.881 113.07C283.881 113.105 283.881 113.146 283.881 113.193C283.881 113.357 283.828 113.51 283.723 113.65C283.582 113.826 283.4 113.932 283.178 113.967C283.131 113.979 283.078 113.984 283.02 113.984C282.855 113.984 282.703 113.943 282.562 113.861C282.035 113.58 281.52 113.439 281.016 113.439C280.5 113.439 280.107 113.551 279.838 113.773C279.568 113.996 279.434 114.289 279.434 114.652C279.434 114.805 279.469 114.951 279.539 115.092C279.621 115.221 279.709 115.332 279.803 115.426C279.908 115.508 280.061 115.602 280.26 115.707C280.459 115.801 280.623 115.877 280.752 115.936C280.893 115.982 281.098 116.059 281.367 116.164C281.438 116.188 281.496 116.205 281.543 116.217C281.895 116.357 282.176 116.475 282.387 116.568C282.598 116.65 282.85 116.785 283.143 116.973C283.447 117.148 283.682 117.33 283.846 117.518C284.01 117.705 284.15 117.951 284.268 118.256C284.396 118.549 284.461 118.871 284.461 119.223C284.461 120.09 284.127 120.811 283.459 121.385C282.791 121.947 281.871 122.229 280.699 122.229ZM289.98 122.229C288.914 122.229 288.146 121.93 287.678 121.332C287.209 120.723 286.975 119.867 286.975 118.766V113.896C286.975 113.803 286.928 113.756 286.834 113.756H286.307C286.084 113.756 285.896 113.68 285.744 113.527C285.604 113.375 285.533 113.193 285.533 112.982C285.533 112.76 285.604 112.572 285.744 112.42C285.896 112.256 286.084 112.168 286.307 112.156L286.922 112.104C287.016 112.104 287.062 112.057 287.062 111.963L287.221 110.24C287.244 109.994 287.344 109.789 287.52 109.625C287.707 109.449 287.924 109.361 288.17 109.361C288.404 109.361 288.604 109.449 288.768 109.625C288.943 109.789 289.031 109.994 289.031 110.24V111.963C289.031 112.057 289.078 112.104 289.172 112.104H290.789C291.012 112.104 291.205 112.186 291.369 112.35C291.533 112.502 291.615 112.695 291.615 112.93C291.615 113.152 291.533 113.346 291.369 113.51C291.205 113.674 291.012 113.756 290.789 113.756H289.172C289.078 113.756 289.031 113.803 289.031 113.896V118.783C289.031 119.381 289.143 119.832 289.365 120.137C289.6 120.43 289.969 120.576 290.473 120.576C290.566 120.576 290.672 120.57 290.789 120.559C290.836 120.547 290.883 120.541 290.93 120.541C291.094 120.541 291.246 120.582 291.387 120.664C291.562 120.758 291.674 120.904 291.721 121.104C291.744 121.174 291.756 121.244 291.756 121.314C291.756 121.455 291.721 121.59 291.65 121.719C291.533 121.918 291.369 122.041 291.158 122.088C290.736 122.182 290.344 122.229 289.98 122.229ZM297.715 122.229C296.32 122.229 295.166 121.766 294.252 120.84C293.338 119.914 292.881 118.654 292.881 117.061C292.881 116.287 293.004 115.566 293.25 114.898C293.508 114.23 293.848 113.68 294.27 113.246C294.691 112.801 295.172 112.455 295.711 112.209C296.25 111.963 296.812 111.84 297.398 111.84C298.688 111.84 299.684 112.268 300.387 113.123C301.09 113.967 301.441 115.109 301.441 116.551C301.441 116.551 301.441 116.557 301.441 116.568C301.43 116.85 301.312 117.09 301.09 117.289C300.867 117.488 300.604 117.588 300.299 117.588H295.043C294.961 117.588 294.926 117.635 294.938 117.729C295.031 118.631 295.348 119.34 295.887 119.855C296.438 120.359 297.135 120.611 297.979 120.611C298.564 120.611 299.133 120.488 299.684 120.242C299.801 120.184 299.918 120.154 300.035 120.154C300.105 120.154 300.176 120.166 300.246 120.189C300.445 120.248 300.598 120.365 300.703 120.541C300.762 120.658 300.791 120.781 300.791 120.91C300.791 120.98 300.785 121.051 300.773 121.121C300.715 121.32 300.592 121.467 300.404 121.561C299.549 122.006 298.652 122.229 297.715 122.229ZM294.92 116.059C294.92 116.129 294.955 116.164 295.025 116.164H299.525C299.607 116.164 299.648 116.123 299.648 116.041C299.625 115.221 299.426 114.588 299.051 114.143C298.676 113.697 298.137 113.475 297.434 113.475C296.812 113.475 296.268 113.697 295.799 114.143C295.213 114.717 294.92 115.355 294.92 116.059ZM305.502 121.701C305.303 121.9 305.057 122 304.764 122C304.482 122 304.242 121.9 304.043 121.701C303.844 121.502 303.744 121.262 303.744 120.98V112.947C303.744 112.713 303.826 112.514 303.99 112.35C304.154 112.186 304.354 112.104 304.588 112.104C304.834 112.104 305.045 112.186 305.221 112.35C305.408 112.502 305.514 112.701 305.537 112.947L305.59 113.457C305.602 113.48 305.613 113.492 305.625 113.492C305.648 113.492 305.666 113.486 305.678 113.475C306.697 112.385 307.711 111.84 308.719 111.84C310.031 111.84 310.928 112.408 311.408 113.545C311.432 113.627 311.479 113.633 311.549 113.562C312.064 113.012 312.574 112.59 313.078 112.297C313.582 111.992 314.115 111.84 314.678 111.84C316.705 111.84 317.719 113.152 317.719 115.777V120.963C317.719 121.256 317.613 121.502 317.402 121.701C317.203 121.9 316.957 122 316.664 122C316.383 122 316.143 121.9 315.943 121.701C315.744 121.502 315.645 121.256 315.645 120.963V116.023C315.645 115.18 315.51 114.57 315.24 114.195C314.971 113.82 314.555 113.633 313.992 113.633C313.348 113.633 312.633 114.049 311.848 114.881C311.789 114.951 311.76 115.027 311.76 115.109V120.963C311.76 121.256 311.654 121.502 311.443 121.701C311.244 121.9 310.998 122 310.705 122C310.424 122 310.184 121.9 309.984 121.701C309.785 121.502 309.686 121.256 309.686 120.963V116.023C309.686 115.18 309.551 114.57 309.281 114.195C309.023 113.82 308.607 113.633 308.033 113.633C307.389 113.633 306.674 114.049 305.889 114.881C305.83 114.951 305.801 115.027 305.801 115.109V120.98C305.801 121.262 305.701 121.502 305.502 121.701Z" fill="#1E1E1E"/>
<path d="M0 46H374" stroke="#1E1E1E" stroke-width="2"/>
<path d="M0 92H374" stroke="#1E1E1E" stroke-width="2"/>
<path d="M118 184L118 -6.85453e-07" stroke="#1E1E1E" stroke-width="2"/>
</svg>
