<svg width="44" height="44" viewBox="0 0 44 44" fill="none" xmlns="http://www.w3.org/2000/svg">
<g clip-path="url(#clip0_551_2182)">
<path d="M22 40.3332C11.8745 40.3332 3.66663 32.1253 3.66663 21.9998C3.66663 11.8743 11.8745 3.6665 22 3.6665C32.1255 3.6665 40.3333 11.8743 40.3333 21.9998C40.3333 32.1253 32.1255 40.3332 22 40.3332ZM22 36.6665C25.8898 36.6665 29.6203 35.1213 32.3709 32.3707C35.1214 29.6202 36.6666 25.8897 36.6666 21.9998C36.6666 18.11 35.1214 14.3795 32.3709 11.6289C29.6203 8.8784 25.8898 7.33317 22 7.33317C18.1101 7.33317 14.3796 8.8784 11.6291 11.6289C8.87853 14.3795 7.33329 18.11 7.33329 21.9998C7.33329 25.8897 8.87853 29.6202 11.6291 32.3707C14.3796 35.1213 18.1101 36.6665 22 36.6665ZM20.1666 29.3332C20.1666 28.3206 20.9874 27.4998 22 27.4998V27.4998C23.0125 27.4998 23.8333 28.3206 23.8333 29.3332V29.3332C23.8333 30.3457 23.0125 31.1665 22 31.1665V31.1665C20.9874 31.1665 20.1666 30.3457 20.1666 29.3332V29.3332ZM24.3111 24.3209C24.0316 24.4288 23.8333 24.6894 23.8333 24.989V24.989C23.8333 25.3632 23.53 25.6665 23.1558 25.6665H22C20.9874 25.6665 20.1666 24.8457 20.1666 23.8332V22.9165C20.1666 22.4303 20.3598 21.964 20.7036 21.6201C21.0474 21.2763 21.5137 21.0832 22 21.0832C22.5208 21.0831 23.0309 20.9352 23.4709 20.6566C23.9109 20.378 24.2628 19.9802 24.4855 19.5094C24.7083 19.0386 24.7928 18.5143 24.7292 17.9974C24.6656 17.4805 24.4565 16.9922 24.1263 16.5895C23.7961 16.1868 23.3583 15.8861 22.8639 15.7224C22.3694 15.5588 21.8387 15.5389 21.3334 15.6651C20.8281 15.7913 20.3691 16.0584 20.0096 16.4353V16.4353C19.4182 17.0556 18.6217 17.6577 17.7813 17.4893L17.5041 17.4338C16.511 17.2349 15.8456 16.2479 16.3161 15.351C16.5564 14.8931 16.8521 14.4638 17.1983 14.0736C17.9526 13.2233 18.9191 12.5886 19.999 12.2343C21.079 11.8799 22.2337 11.8188 23.345 12.057C24.4564 12.2952 25.4846 12.8242 26.3245 13.59C27.1643 14.3558 27.7858 15.3309 28.1253 16.4156C28.4649 17.5003 28.5102 18.6557 28.2569 19.7637C28.0035 20.8717 27.4605 21.8926 26.6832 22.7219C26.0214 23.4281 25.21 23.9739 24.3111 24.3209Z" fill="#1E1E1E"/>
</g>
<defs>
<clipPath id="clip0_551_2182">
<rect width="44" height="44" fill="white"/>
</clipPath>
</defs>
</svg>
