<svg width="47" height="49" viewBox="0 0 47 49" fill="none" xmlns="http://www.w3.org/2000/svg">
<path opacity="0.8" d="M26.9717 46.75C26.0342 47.6875 24.8623 48.1562 23.4561 48.1562C22.1084 48.1562 20.9658 47.6875 20.0283 46.75C19.0908 45.8125 18.6221 44.6699 18.6221 43.3223V29.6992C18.6221 29.2305 18.3877 28.9961 17.9189 28.9961H5.08691C3.79785 28.9961 2.68457 28.5566 1.74707 27.6777C0.868164 26.7402 0.428711 25.627 0.428711 24.3379C0.428711 23.0488 0.868164 21.9648 1.74707 21.0859C2.68457 20.1484 3.79785 19.6797 5.08691 19.6797H17.9189C18.3877 19.6797 18.6221 19.4453 18.6221 18.9766V5.35352C18.6221 4.00586 19.0908 2.86328 20.0283 1.92578C20.9658 0.988281 22.1084 0.519531 23.4561 0.519531C24.8623 0.519531 26.0342 0.988281 26.9717 1.92578C27.9092 2.86328 28.3779 4.00586 28.3779 5.35352V18.9766C28.3779 19.4453 28.6123 19.6797 29.0811 19.6797H41.9131C43.2021 19.6797 44.2861 20.1484 45.165 21.0859C46.1025 21.9648 46.5713 23.0488 46.5713 24.3379C46.5713 25.627 46.1025 26.7402 45.165 27.6777C44.2861 28.5566 43.2021 28.9961 41.9131 28.9961H29.0811C28.6123 28.9961 28.3779 29.2305 28.3779 29.6992V43.3223C28.3779 44.6699 27.9092 45.8125 26.9717 46.75Z" fill="#1E1E1E"/>
</svg>
